<svg width="1200" height="1200" viewBox="0 0 1200 1200" fill="none" xmlns="http://www.w3.org/2000/svg">
<path d="M600.029 1100C559.119 1100 520.039 1083.49 441.875 1050.48C247.311 968.29 150.029 927.195 150.029 858.07C150.029 838.715 150.029 503.23 150.029 350.005M600.029 1100C640.939 1100 680.019 1083.49 758.184 1050.48C952.749 968.29 1050.03 927.195 1050.03 858.07V350.005M600.029 1100V567.745" stroke="#1D4E52" stroke-width="75" stroke-linecap="round" stroke-linejoin="round"/>
<path d="M416.325 484.601L270.265 413.925C190.107 375.137 150.029 355.744 150.029 325.032C150.029 294.321 190.107 274.927 270.265 236.14L416.325 165.463C506.469 121.843 551.544 100.032 600.029 100.032C648.514 100.032 693.589 121.842 783.734 165.463L929.794 236.14C1009.95 274.927 1050.03 294.321 1050.03 325.032C1050.03 355.744 1009.95 375.137 929.794 413.925L783.734 484.601C693.589 528.222 648.514 550.032 600.029 550.032C551.544 550.032 506.469 528.222 416.325 484.601Z" stroke="#1D4E52" stroke-width="75" stroke-linecap="round" stroke-linejoin="round"/>
<path d="M299.984 600.016L399.984 650.016" stroke="#1D4E52" stroke-width="75" stroke-linecap="round" stroke-linejoin="round"/>
<path d="M849.995 200.013L349.995 450.013" stroke="#1D4E52" stroke-width="75" stroke-linecap="round" stroke-linejoin="round"/>
</svg>
