<svg width="148" height="56" viewBox="0 0 148 56" fill="none" xmlns="http://www.w3.org/2000/svg">
<path d="M136.322 0.00112151C136.707 0.0681498 137.073 0.111219 137.428 0.19893C138.537 0.472472 139.521 0.98824 140.37 1.75592C140.773 2.12058 141.173 2.48806 141.577 2.85607C141.648 2.69553 141.761 2.45563 141.862 2.21077C142.022 1.82255 142.17 1.42923 142.334 1.04267C142.36 0.980934 142.442 0.901432 142.499 0.900677C143.228 0.891066 143.956 0.894345 144.697 0.894345C144.697 5.4083 144.697 9.89487 144.697 14.3736C144.202 14.3482 143.725 14.3238 143.249 14.2992C142.927 14.2825 142.606 14.2669 142.284 14.2479C142.154 14.2402 142.09 14.1872 142.069 14.0365C141.912 12.9065 141.772 11.773 141.568 10.6512C141.373 9.58101 141.043 8.54631 140.597 7.54803C140.247 6.76505 139.817 6.03202 139.229 5.41503C138.545 4.69612 137.72 4.20351 136.703 4.07644C136.102 4.00142 135.516 4.00338 134.95 4.22946C133.844 4.67145 133.238 5.52362 133.005 6.66423C132.737 7.97914 133.274 9.07417 133.982 10.1104C134.761 11.251 135.743 12.2146 136.735 13.1644C138.127 14.4982 139.573 15.7777 140.935 17.1407C142.201 18.4076 143.324 19.8066 144.21 21.3732C144.9 22.5945 145.36 23.911 145.605 25.2915C145.746 26.0828 145.848 26.8849 145.903 27.6865C145.962 28.5615 145.999 29.4447 145.95 30.319C145.858 31.973 145.546 33.589 144.763 35.0723C144.071 36.3849 143.128 37.4659 141.739 38.085C141.155 38.345 140.544 38.4935 139.901 38.5215C138.876 38.5662 137.874 38.445 136.904 38.1129C135.922 37.7766 135.015 37.2897 134.198 36.6462C133.376 35.9985 132.65 35.2568 132.048 34.3974C132.017 34.3536 131.978 34.316 131.917 34.2469C131.754 34.5452 131.6 34.8141 131.458 35.0888C131.271 35.4488 131.088 35.811 130.914 36.1768C130.84 36.3319 130.77 36.3849 130.573 36.3456C130.002 36.2319 129.423 36.1582 128.845 36.0793C128.655 36.0533 128.564 35.9971 128.564 35.7747C128.571 31.0156 128.569 26.2565 128.57 21.4974C128.57 21.4165 128.577 21.3356 128.583 21.2209C128.918 21.2417 129.236 21.2555 129.554 21.2827C130.054 21.3256 130.552 21.3911 131.052 21.4195C131.283 21.4326 131.353 21.502 131.368 21.7403C131.411 22.4294 131.464 23.1203 131.564 23.8029C131.723 24.8905 131.886 25.98 132.117 27.054C132.403 28.3877 132.844 29.6796 133.525 30.8669C133.871 31.4703 134.29 32.0395 134.728 32.5811C135.441 33.4603 136.372 34.0205 137.484 34.2524C138.511 34.4667 139.458 34.3244 140.215 33.5221C140.676 33.0329 140.913 32.4263 141.022 31.7744C141.085 31.3941 141.127 31.0042 141.121 30.6195C141.106 29.6045 140.873 28.6312 140.477 27.6976C140.018 26.6186 139.375 25.6483 138.632 24.7535C138.015 24.0102 137.338 23.3145 136.662 22.6235C135.896 21.8415 135.104 21.0843 134.317 20.3237C133.692 19.7198 133.043 19.1402 132.428 18.5263C131.11 17.2101 130 15.7386 129.236 14.0299C128.835 13.1338 128.554 12.1989 128.413 11.2205C128.299 10.4324 128.238 9.64327 128.274 8.85042C128.338 7.44392 128.585 6.07665 129.164 4.77741C129.66 3.66211 130.335 2.6738 131.206 1.82577C132.176 0.882282 133.326 0.271945 134.671 0.0514708C134.768 0.035496 134.869 0.038949 134.981 0.0189756C135.43 0.00225149 135.864 -7.97501e-05 136.322 0.00112151Z" fill="#58695F"/>
<path d="M0.00324689 0.914568C1.67597 0.891939 3.34514 0.897287 5.01427 0.892143C9.52933 0.878228 14.0444 0.859847 18.5594 0.843282C18.6407 0.842984 18.722 0.843246 18.8193 0.843246C18.8193 4.70049 18.8193 8.53263 18.8193 12.394C17.9574 12.4395 17.0958 12.485 16.2183 12.5313C16.1944 12.3274 16.1566 12.1186 16.1474 11.9086C16.0924 10.6554 15.9227 9.4211 15.5709 8.21428C15.3636 7.50363 15.0644 6.84157 14.614 6.24745C14.269 5.79246 13.8074 5.49015 13.3145 5.24204C12.5341 4.84925 11.6811 4.67914 10.8222 4.59288C10.1405 4.52443 9.44971 4.54637 8.76289 4.5319C8.49776 4.52632 8.23242 4.53099 7.94488 4.53099C7.94488 8.61573 7.94488 12.6864 7.94488 16.803C8.24929 16.765 8.54866 16.7392 8.8437 16.6883C9.53841 16.5685 10.1762 16.3227 10.679 15.8025C11.1431 15.3224 11.3636 14.7204 11.5072 14.0883C11.7032 13.2248 11.7675 12.3456 11.7563 11.4617C11.7538 11.2629 11.8255 11.2065 12.0177 11.2047C12.5966 11.1994 13.1755 11.1785 13.7541 11.1567C13.9072 11.1509 14.0594 11.1198 14.2336 11.0976C14.2336 15.8095 14.2336 20.489 14.2336 25.1892C13.4254 25.279 12.6128 25.3694 11.7597 25.4643C11.7597 25.1759 11.7747 24.9042 11.757 24.6346C11.7015 23.7897 11.6381 22.948 11.3728 22.1314C11.0095 21.0131 10.1498 20.448 8.9797 20.4286C8.80536 20.4257 8.63046 20.4202 8.45667 20.4304C8.28618 20.4405 8.11678 20.469 7.92248 20.4923C7.92248 20.5967 7.92248 20.6859 7.92248 20.7752C7.92248 24.4042 7.91914 28.0331 7.92671 31.6621C7.92766 32.1171 8.02713 32.5608 8.26226 32.9631C8.57403 33.4965 9.24166 33.6209 9.8337 33.5716C9.96319 33.5608 10.0918 33.5397 10.2444 33.5203C10.2444 34.7417 10.2444 35.933 10.2444 37.1601C9.84912 37.229 9.44042 37.3029 9.03078 37.3712C8.15672 37.5169 7.28219 37.6598 6.40782 37.8037C5.56564 37.9423 4.72322 38.0795 3.88127 38.2195C3.0314 38.3608 2.18193 38.5045 1.33239 38.6478C0.903796 38.7201 0.475434 38.7938 0.0268919 38.8677C0.00443749 37.6039 0.00205946 36.3391 0.0239277 35.0517C0.16172 35.0125 0.277114 35.0038 0.388517 34.978C1.228 34.7832 1.90292 34.3723 2.12733 33.4848C2.24725 33.0104 2.33155 32.5124 2.33228 32.0248C2.34453 23.8534 2.34248 15.6818 2.33676 7.51033C2.33647 7.10016 2.2982 6.6863 2.23526 6.28073C2.12558 5.57409 1.80344 5.00474 1.05513 4.81853C0.715417 4.73399 0.356837 4.72529 0.0068157 4.68219C0.00443561 3.43405 0.00205535 2.1859 0.00324689 0.914568Z" fill="#58695F"/>
<path d="M0.000111951 47.9034C0.10152 47.8819 0.201049 47.8856 0.300578 47.8856C6.95041 47.8859 13.6002 47.8859 20.2501 47.8859C20.3487 47.8859 20.4473 47.8859 20.5622 47.8859C20.5622 48.1009 20.5622 48.303 20.5622 48.5346C13.7232 48.5346 6.8855 48.5346 0.0248883 48.5371C0.00073131 48.3354 -0.000518056 48.1311 0.000111951 47.9034Z" fill="#58695F"/>
<path d="M31.293 31.9403C31.293 32.5798 31.2842 33.1945 31.2983 33.8087C31.3026 33.9972 31.2178 34.0598 31.0631 34.0798C30.1427 34.1989 29.2209 34.3075 28.3018 34.4357C27.3185 34.5729 26.3382 34.732 25.3554 34.8735C24.5994 34.9823 23.8411 35.074 23.085 35.1818C22.3461 35.2871 21.6088 35.4031 20.8502 35.5175C20.8422 35.449 20.8288 35.3876 20.8287 35.3262C20.8274 34.3047 20.8305 33.2833 20.8252 32.2618C20.8243 32.0846 20.8595 32.0086 21.0653 31.9804C21.5843 31.9092 22.0835 31.7438 22.4857 31.394C22.8835 31.048 23.0558 30.5681 23.1134 30.0603C23.1617 29.6345 23.1677 29.2024 23.1679 28.7731C23.1708 21.3073 23.1717 13.8416 23.1659 6.37581C23.1655 5.91453 23.0724 5.46563 22.8353 5.05191C22.6053 4.65051 22.2406 4.47038 21.8174 4.38647C21.5042 4.32436 21.1838 4.29863 20.8468 4.25407C20.8468 3.12113 20.8468 1.97943 20.8468 0.80656C20.9284 0.802497 21.0158 0.794369 21.1031 0.794354C24.6823 0.793717 28.2622 0.754442 31.8405 0.810534C33.6112 0.83829 35.3457 1.18079 36.9229 2.06568C37.9296 2.63047 38.7299 3.40607 39.2893 4.4249C39.8035 5.36134 40.1332 6.3571 40.2083 7.42129C40.2722 8.32758 40.3382 9.24037 40.2984 10.1457C40.2472 11.3077 39.9948 12.4404 39.5142 13.5141C39.1004 14.4384 38.5407 15.2601 37.7931 15.9384C36.9755 16.6802 36.0176 17.1865 34.9549 17.4913C34.8848 17.5114 34.8169 17.5394 34.6908 17.5839C35.0058 17.6696 35.2698 17.7327 35.5284 17.8134C37.1328 18.3142 38.0602 19.4477 38.4624 21.0328C38.6679 21.8426 38.8358 22.6661 38.9528 23.493C39.0564 24.2255 39.0609 24.9716 39.1182 25.711C39.2088 26.8817 39.2024 28.0674 39.6122 29.1917C39.6821 29.3833 39.7678 29.5814 39.8943 29.7375C40.2118 30.1295 40.6188 30.05 40.9971 29.655C41.3762 29.2592 41.496 28.7311 41.5054 28.193C41.5194 27.397 41.5091 26.6005 41.5091 25.7583C42.1373 25.7056 42.7534 25.6538 43.4028 25.5993C43.4028 26.1847 43.4147 26.7306 43.4004 27.2758C43.3681 28.5047 43.2668 29.7234 42.8604 30.8986C42.2931 32.539 41.1086 33.4554 39.4464 33.7737C38.8518 33.8875 38.2337 33.935 37.628 33.9235C36.1658 33.8958 35.2017 33.2078 34.5976 31.85C34.187 30.9272 34.0124 29.9345 33.9351 28.9288C33.8783 28.1894 33.8241 27.4495 33.7876 26.7089C33.7562 26.0726 33.7565 25.4349 33.7338 24.7981C33.6931 23.6627 33.6766 22.5243 33.3853 21.4145C33.2293 20.8199 33.019 20.2446 32.603 19.7822C32.2041 19.339 31.672 19.0901 31.094 18.9978C30.3251 18.8751 29.549 18.889 28.7627 19.0434C28.7586 19.1361 28.7519 19.217 28.7519 19.2979C28.7514 22.4453 28.7444 25.5928 28.7605 28.7401C28.7625 29.1277 28.8451 29.5288 28.9661 29.8988C29.1547 30.4751 29.5993 30.7013 30.2632 30.7408C30.5967 30.7607 30.9323 30.7443 31.293 30.7443C31.293 31.1223 31.293 31.5188 31.293 31.9403ZM34.682 6.70038C34.6665 6.65346 34.6486 6.60719 34.636 6.55952C34.3621 5.5236 33.7722 4.76073 32.7159 4.45588C32.2307 4.31585 31.7213 4.24887 31.2184 4.18352C30.4053 4.07788 29.5902 4.11647 28.7715 4.19327C28.7715 7.91867 28.7715 11.6227 28.7715 15.3723C29.3683 15.3293 29.9419 15.2811 30.5163 15.2484C31.1539 15.212 31.7697 15.0839 32.3622 14.847C33.2184 14.5047 33.8843 13.9604 34.3072 13.1164C34.7844 12.1638 34.9131 11.1398 34.9714 10.1049C35.0058 9.49603 34.973 8.87984 34.9231 8.27082C34.881 7.75782 34.7705 7.25043 34.682 6.70038Z" fill="#58695F"/>
<path d="M97.0238 15.7911C97.0238 12.444 97.0244 9.12188 97.023 5.79974C97.0229 5.39605 96.9241 5.01236 96.7172 4.66714C96.4347 4.19559 95.953 4.04254 95.4553 3.9334C95.2797 3.89488 95.0978 3.88473 94.8999 3.85918C94.8999 2.83629 94.8999 1.81067 94.8999 0.763023C97.5051 0.763023 100.114 0.763023 102.739 0.763023C102.739 1.81064 102.739 2.85254 102.739 3.90577C102.452 3.94766 102.165 3.97018 101.887 4.03333C100.905 4.25695 100.558 4.65612 100.475 5.64513C100.399 6.55122 100.415 7.46625 100.415 8.37736C100.411 16.2592 100.413 24.141 100.413 32.0228C100.413 32.1298 100.413 32.2368 100.413 32.3871C100.086 32.3673 99.7775 32.3543 99.4703 32.3282C99.2003 32.3053 98.9322 32.2624 98.6624 32.2376C97.7365 32.1525 96.8104 32.0708 95.8842 31.9892C95.4825 31.9539 95.0794 31.9308 94.6796 31.8812C94.6017 31.8716 94.4949 31.7781 94.4707 31.7014C94.1689 30.7442 93.8784 29.7834 93.5879 28.8226C93.345 28.0195 93.1068 27.215 92.8651 26.4116C92.3889 24.8281 91.9146 23.2441 91.4339 21.662C91.1109 20.5992 90.7756 19.5401 90.4504 18.4779C89.894 16.6605 89.3431 14.8414 88.786 13.0243C88.4747 12.0092 88.1546 10.9968 87.8404 9.98267C87.6554 9.38539 87.475 8.78666 87.2904 8.18925C87.2581 8.0845 87.215 7.98304 87.1228 7.8878C87.1174 7.96451 87.1074 8.04122 87.1074 8.11794C87.1067 14.1144 87.1048 20.1109 87.1122 26.1074C87.1126 26.4247 87.1678 26.7473 87.2389 27.058C87.426 27.8757 88.0573 28.1801 88.7926 28.3469C88.9286 28.3777 89.0681 28.393 89.228 28.419C89.228 29.4455 89.228 30.477 89.228 31.5065C88.3044 31.4669 87.3839 31.4303 86.4637 31.387C85.887 31.3598 85.311 31.3159 84.7342 31.2911C83.8258 31.2521 82.9169 31.2257 82.0084 31.1873C81.8118 31.179 81.6163 31.1426 81.3975 31.1164C81.3975 30.1279 81.3975 29.1297 81.3975 28.1335C81.7359 28.0895 82.0702 28.0572 82.4004 28.0006C83.1413 27.8736 83.5387 27.4685 83.6641 26.7139C83.6991 26.5035 83.7158 26.2877 83.7159 26.0743C83.7185 19.2722 83.7185 12.4701 83.7169 5.66802C83.7168 5.23946 83.6115 4.83426 83.381 4.46983C83.1089 4.03947 82.66 3.9183 82.2019 3.83538C81.944 3.78869 81.6787 3.78255 81.396 3.75622C81.396 2.75436 81.396 1.74559 81.396 0.725952C84.3957 0.725952 87.4019 0.725952 90.4201 0.725952C92.6037 7.98696 94.7786 15.2195 96.9536 22.452C96.977 22.4497 97.0004 22.4474 97.0238 22.4451C97.0238 20.2354 97.0238 18.0257 97.0238 15.7911Z" fill="#58695F"/>
<path d="M120.163 33.1997C119.395 33.6443 118.588 33.9231 117.722 33.9749C116.904 34.0238 116.081 34.0598 115.264 34.0187C114.321 33.9713 113.383 33.8354 112.443 33.734C111.692 33.6528 110.94 33.5708 110.189 33.4803C109.276 33.3703 108.365 33.2454 107.452 33.1375C106.766 33.0564 106.078 32.992 105.369 32.9179C105.369 31.8562 105.369 30.7919 105.369 29.6953C105.636 29.6953 105.902 29.7203 106.161 29.6882C106.418 29.6564 106.682 29.5993 106.919 29.4966C107.416 29.28 107.559 28.8123 107.633 28.3296C107.679 28.0294 107.687 27.721 107.687 27.4163C107.69 20.2996 107.692 13.1829 107.684 6.0662C107.683 5.48364 107.574 4.91567 107.119 4.48035C106.802 4.17713 106.4 4.09679 105.991 4.03221C105.789 4.00026 105.585 3.98418 105.364 3.95899C105.364 2.89922 105.364 1.84066 105.364 0.753843C105.451 0.749743 105.539 0.742049 105.627 0.742015C107.421 0.741315 109.214 0.735831 111.008 0.743686C112.027 0.748148 113.047 0.747757 114.065 0.798295C115.287 0.859052 116.515 0.928533 117.706 1.24407C118.88 1.55514 119.923 2.10721 120.809 2.96213C121.708 3.82999 122.403 4.83412 122.927 5.95749C123.458 7.09617 123.817 8.29483 124.031 9.53211C124.183 10.4133 124.312 11.2991 124.426 12.1861C124.489 12.6757 124.509 13.1715 124.531 13.6653C124.572 14.5818 124.609 15.4986 124.631 16.4157C124.657 17.4677 124.674 18.52 124.679 19.5722C124.682 20.0762 124.662 20.5812 124.63 21.0843C124.575 21.9553 124.518 22.8267 124.432 23.6951C124.353 24.4874 124.249 25.2779 124.132 26.0657C123.965 27.1921 123.669 28.2864 123.238 29.3419C122.745 30.55 122.069 31.638 121.087 32.5114C120.805 32.7616 120.482 32.9653 120.163 33.1997ZM113.271 29.2219C113.271 29.6578 113.271 30.0937 113.271 30.5324C113.413 30.5391 113.513 30.5414 113.612 30.5486C114.255 30.5958 114.899 30.6861 115.542 30.6832C116.822 30.6774 117.809 29.9319 118.188 28.7139C118.442 27.8967 118.573 27.0347 118.691 26.1833C118.806 25.353 118.846 24.5112 118.898 23.6732C118.947 22.8985 118.975 22.1223 119 21.3463C119.025 20.5352 119.049 19.7236 119.048 18.9123C119.047 17.9846 119.022 17.0569 119.001 16.1294C118.971 14.8636 118.941 13.5979 118.899 12.3325C118.881 11.7722 118.849 11.2118 118.801 10.6533C118.728 9.80963 118.655 8.96518 118.548 8.12552C118.45 7.36526 118.281 6.62079 117.911 5.93324C117.408 4.99814 116.621 4.44029 115.601 4.24234C115.08 4.14113 114.534 4.16473 114 4.12973C113.766 4.11439 113.532 4.09357 113.271 4.07312C113.271 12.4672 113.271 20.8196 113.271 29.2219Z" fill="#58695F"/>
<path d="M68.4055 13.7981C68.8347 13.628 69.2689 13.5053 69.6441 13.283C70.2194 12.9424 70.4728 12.3462 70.6001 11.7247C70.7166 11.1557 70.7491 10.5691 70.8084 9.98927C70.8267 9.81053 70.8112 9.62836 70.8112 9.43283C71.6479 9.43283 72.4572 9.43283 73.2847 9.43283C73.2847 13.3881 73.2847 17.3366 73.2847 21.3064C72.4714 21.3064 71.6563 21.3064 70.8112 21.3064C70.8112 20.994 70.8294 20.688 70.8076 20.3848C70.7572 19.6853 70.662 18.9906 70.3412 18.3548C70.0087 17.6958 69.4489 17.3074 68.7521 17.1118C68.1179 16.9337 67.4677 16.9155 66.7945 16.9541C66.7945 20.6275 66.7945 24.2936 66.7945 27.9924C66.8734 27.9965 66.9605 28.0045 67.0476 28.0047C67.5376 28.006 68.0287 28.0265 68.5173 28.0012C69.8094 27.9344 71.0951 27.8261 72.3092 27.314C73.303 26.8948 74.0352 26.2257 74.4763 25.2246C74.903 24.2563 75.1267 23.2423 75.2427 22.2015C75.3458 21.2778 75.413 20.35 75.498 19.4027C76.3263 19.4027 77.1854 19.4027 78.0659 19.4027C78.0659 23.2719 78.0659 27.1432 78.0659 31.0452C77.9622 31.0452 77.8652 31.0452 77.7682 31.0452C75.991 31.0452 74.2138 31.0389 72.4366 31.0473C71.0273 31.0539 69.6179 31.076 68.2087 31.0961C67.447 31.107 66.6855 31.127 65.924 31.1454C65.3202 31.1599 64.7165 31.1775 64.1127 31.195C63.5753 31.2107 63.038 31.2263 62.5007 31.2451C61.5921 31.2769 60.6835 31.3083 59.7751 31.3459C59.4803 31.3581 59.1862 31.3891 58.8703 31.4132C58.8703 30.3656 58.8703 29.3571 58.8703 28.346C59.194 28.2848 59.523 28.2279 59.8496 28.1597C60.677 27.987 61.0134 27.4479 61.1375 26.6963C61.1856 26.405 61.1909 26.1043 61.1911 25.8079C61.1938 19.1393 61.1967 12.4706 61.1839 5.80206C61.1832 5.43236 61.0973 5.04337 60.9623 4.698C60.7655 4.19414 60.3128 3.97191 59.7982 3.88908C59.4922 3.83982 59.182 3.81667 58.8643 3.78073C58.8643 2.74637 58.8643 1.73743 58.8643 0.71228C65.1348 0.71228 71.3921 0.71228 77.6689 0.71228C77.6689 4.04996 77.6689 7.38394 77.6689 10.7403C76.8093 10.7403 75.9441 10.7403 75.0533 10.7403C75.018 10.3392 74.9896 9.9388 74.9463 9.54002C74.806 8.24862 74.5739 6.98037 73.8831 5.84984C73.3646 5.00128 72.5581 4.53043 71.6386 4.2402C70.0861 3.75018 68.4824 3.76124 66.8788 3.78865C66.8554 3.78905 66.8321 3.80012 66.7922 3.81054C66.7922 7.16027 66.7922 10.5108 66.7922 13.9344C67.3267 13.8896 67.8554 13.8452 68.4055 13.7981Z" fill="#58695F"/>
<path d="M53.4678 16.8896C53.4678 20.1446 53.4638 23.3748 53.4745 26.6049C53.4755 26.9039 53.5418 27.211 53.6272 27.4998C53.813 28.1283 54.3053 28.3773 54.912 28.4493C55.1975 28.4833 55.485 28.4995 55.791 28.5254C55.791 29.5298 55.791 30.5382 55.791 31.564C55.6209 31.5888 55.4454 31.6263 55.2681 31.6382C54.6839 31.6773 54.0983 31.6979 53.5146 31.7428C52.7848 31.799 52.0566 31.877 51.3269 31.9364C50.8095 31.9786 50.2901 31.9978 49.7727 32.0412C49.0845 32.0988 48.3977 32.1739 47.7096 32.2339C47.2336 32.2754 46.7564 32.3029 46.2799 32.3387C46.0617 32.3551 45.8439 32.3764 45.6084 32.397C45.6084 31.3168 45.6084 30.2749 45.6084 29.2453C45.9155 29.1795 46.2118 29.1215 46.5053 29.052C47.4743 28.8226 47.8187 28.1582 47.8787 27.3967C47.9313 26.7294 47.9336 26.0571 47.934 25.387C47.9377 18.935 47.9401 12.483 47.9289 6.03107C47.928 5.50099 47.8695 4.96226 47.5084 4.51367C47.2342 4.17297 46.8572 4.05299 46.4563 3.98655C46.1823 3.94113 45.902 3.93309 45.6094 3.90699C45.6094 2.86304 45.6094 1.8213 45.6094 0.761353C49.0001 0.761353 52.3836 0.761353 55.7886 0.761353C55.7886 1.77356 55.7886 2.788 55.7886 3.78326C55.4086 3.85213 55.0328 3.89613 54.6704 3.99105C53.96 4.1771 53.6247 4.69919 53.5226 5.3889C53.4805 5.67325 53.4703 5.96443 53.47 6.25252C53.4666 9.78989 53.4678 13.3273 53.4678 16.8896Z" fill="#58695F"/>
<path d="M143.819 48.537C138.098 48.537 132.402 48.537 126.691 48.537C126.691 48.319 126.691 48.1168 126.691 47.9017C133.537 47.9017 140.378 47.9017 147.238 47.9017C147.238 48.0981 147.238 48.3004 147.238 48.537C146.112 48.537 144.978 48.537 143.819 48.537Z" fill="#58695F"/>
<path d="M25.2898 53.2123C25.4586 52.7267 25.636 52.2158 25.8218 51.6796C26.0076 51.1433 26.187 50.6345 26.3601 50.1532L27.4368 47.0497C27.6353 46.4924 27.8126 45.9899 27.9689 45.5423C28.1251 45.0905 28.2834 44.6366 28.4439 44.1806H30.3756C30.5403 44.6493 30.6986 45.1074 30.8506 45.555C31.0069 46.0026 31.1821 46.5029 31.3763 47.0561L32.4467 50.1658C32.6198 50.6641 32.7971 51.1771 32.9787 51.7049C33.1645 52.2285 33.3397 52.7309 33.5044 53.2123H31.959C31.7943 52.7014 31.6254 52.1778 31.4523 51.6416C31.2792 51.1011 31.1145 50.5902 30.9583 50.1088L29.4636 45.4853H29.3369L27.8232 50.0645C27.6585 50.5627 27.4875 51.0842 27.3102 51.6289C27.1328 52.1736 26.9597 52.7014 26.7908 53.2123H25.2898ZM27.1455 51.0842L27.2848 49.9442H31.6677L31.7817 51.0842H27.1455ZM34.8939 53.2123C34.8939 52.714 34.8939 52.2348 34.8939 51.7746C34.8939 51.3143 34.8939 50.8034 34.8939 50.2418V47.2017C34.8939 46.6275 34.8939 46.106 34.8939 45.6373C34.8939 45.1686 34.8939 44.6831 34.8939 44.1806C35.2613 44.1806 35.6265 44.1806 35.9896 44.1806C36.357 44.1806 36.7243 44.1806 37.0917 44.1806C37.459 44.1806 37.8348 44.1806 38.219 44.1806C38.9115 44.1806 39.5259 44.2819 40.0621 44.4846C40.6026 44.6831 41.0586 44.9765 41.4302 45.365C41.8017 45.7492 42.0825 46.2179 42.2725 46.771C42.4668 47.3242 42.5639 47.9554 42.5639 48.6648C42.5639 49.3024 42.4773 49.8977 42.3042 50.4508C42.1353 50.9998 41.8651 51.4811 41.4935 51.8949C41.1261 52.3087 40.6406 52.6317 40.0368 52.8639C39.433 53.0962 38.6983 53.2123 37.8327 53.2123C37.4569 53.2123 37.1064 53.2123 36.7813 53.2123C36.4562 53.2123 36.1395 53.2123 35.8313 53.2123C35.5273 53.2123 35.2148 53.2123 34.8939 53.2123ZM36.3823 51.9962H37.839C38.6202 51.9962 39.243 51.8506 39.7074 51.5592C40.1719 51.2679 40.5055 50.8689 40.7081 50.3622C40.9108 49.8555 41.0121 49.2812 41.0121 48.6394C41.0121 48.1496 40.953 47.7063 40.8348 47.3094C40.7166 46.9083 40.5329 46.5663 40.2838 46.2834C40.0347 45.9962 39.718 45.7767 39.3337 45.6247C38.9495 45.4727 38.4914 45.3967 37.9594 45.3967H36.3823C36.3823 45.7302 36.3823 46.0659 36.3823 46.4037C36.3823 46.7373 36.3823 47.1067 36.3823 47.5121V49.9188C36.3823 50.3157 36.3823 50.681 36.3823 51.0145C36.3823 51.3439 36.3823 51.6711 36.3823 51.9962ZM47.7682 53.3643C46.8984 53.3643 46.1932 53.2186 45.6528 52.9273C45.1165 52.6317 44.7238 52.2179 44.4747 51.6859C44.2256 51.1539 44.101 50.529 44.101 49.8112C44.101 49.6423 44.101 49.4185 44.101 49.1398C44.101 48.8611 44.101 48.555 44.101 48.2214C44.101 47.8836 44.101 47.5437 44.101 47.2017C44.101 46.6275 44.101 46.106 44.101 45.6373C44.101 45.1686 44.101 44.6831 44.101 44.1806H45.5831C45.5831 44.6831 45.5831 45.1686 45.5831 45.6373C45.5831 46.106 45.5831 46.6275 45.5831 47.2017V49.6971C45.5831 50.2038 45.6549 50.6366 45.7984 50.9955C45.9462 51.3544 46.1785 51.631 46.4951 51.8252C46.816 52.0152 47.2383 52.1102 47.7618 52.1102C48.2939 52.1102 48.7182 52.0152 49.0349 51.8252C49.3516 51.631 49.5796 51.3544 49.7189 50.9955C49.8583 50.6366 49.9279 50.2017 49.9279 49.6908V47.2017C49.9279 46.6275 49.9279 46.106 49.9279 45.6373C49.9279 45.1686 49.9279 44.6831 49.9279 44.1806H51.41C51.41 44.6831 51.41 45.1686 51.41 45.6373C51.41 46.106 51.41 46.6275 51.41 47.2017C51.41 47.5437 51.41 47.8836 51.41 48.2214C51.41 48.5592 51.41 48.8696 51.41 49.1525C51.41 49.4311 51.41 49.6528 51.41 49.8175C51.41 50.5353 51.2812 51.1602 51.0236 51.6922C50.7703 52.22 50.3755 52.6317 49.8393 52.9273C49.303 53.2186 48.6127 53.3643 47.7682 53.3643ZM53.4493 53.2123C53.4493 52.714 53.4493 52.2348 53.4493 51.7746C53.4493 51.3143 53.4493 50.8034 53.4493 50.2418V47.2017C53.4493 46.6275 53.4493 46.106 53.4493 45.6373C53.4493 45.1686 53.4493 44.6831 53.4493 44.1806H54.9377C54.9377 44.6831 54.9377 45.1686 54.9377 45.6373C54.9377 46.106 54.9377 46.6275 54.9377 47.2017V50.0075C54.9377 50.5691 54.9377 51.0821 54.9377 51.5466C54.9377 52.0068 54.9377 52.4839 54.9377 52.9779L54.3993 51.9012H56.0967C56.5612 51.9012 56.9708 51.9012 57.3254 51.9012C57.6843 51.9012 58.0158 51.9012 58.3198 51.9012C58.6238 51.9012 58.9363 51.9012 59.2572 51.9012V53.2123H53.4493ZM61.7842 53.2123C61.7842 52.714 61.7842 52.2348 61.7842 51.7746C61.7842 51.3143 61.7842 50.8034 61.7842 50.2418V47.4234C61.7842 46.8534 61.7842 46.334 61.7842 45.8653C61.7842 45.3924 61.7842 44.9069 61.7842 44.4086L62.3605 45.4917H61.2395C60.7412 45.4917 60.3 45.4917 59.9158 45.4917C59.5315 45.4917 59.1663 45.4917 58.8201 45.4917V44.1806H66.224V45.4917C65.882 45.4917 65.5189 45.4917 65.1346 45.4917C64.7504 45.4917 64.307 45.4917 63.8046 45.4917H62.6835L63.2662 44.4086C63.2662 44.9069 63.2662 45.3924 63.2662 45.8653C63.2662 46.334 63.2662 46.8534 63.2662 47.4234V50.2418C63.2662 50.8034 63.2662 51.3143 63.2662 51.7746C63.2662 52.2348 63.2662 52.714 63.2662 53.2123H61.7842ZM70.0873 53.2123C70.0873 52.714 70.0873 52.2348 70.0873 51.7746C70.0873 51.3143 70.0873 50.8034 70.0873 50.2418V47.2017C70.0873 46.6275 70.0873 46.106 70.0873 45.6373C70.0873 45.1686 70.0873 44.6831 70.0873 44.1806C70.4546 44.1806 70.8199 44.1806 71.183 44.1806C71.5503 44.1806 71.9177 44.1806 72.285 44.1806C72.6524 44.1806 73.0282 44.1806 73.4124 44.1806C74.1049 44.1806 74.7192 44.2819 75.2555 44.4846C75.7959 44.6831 76.252 44.9765 76.6235 45.365C76.9951 45.7492 77.2759 46.2179 77.4659 46.771C77.6601 47.3242 77.7572 47.9554 77.7572 48.6648C77.7572 49.3024 77.6707 49.8977 77.4976 50.4508C77.3287 50.9998 77.0584 51.4811 76.6869 51.8949C76.3195 52.3087 75.8339 52.6317 75.2301 52.8639C74.6263 53.0962 73.8916 53.2123 73.0261 53.2123C72.6503 53.2123 72.2998 53.2123 71.9747 53.2123C71.6496 53.2123 71.3329 53.2123 71.0247 53.2123C70.7206 53.2123 70.4082 53.2123 70.0873 53.2123ZM71.5757 51.9962H73.0324C73.8135 51.9962 74.4363 51.8506 74.9008 51.5592C75.3653 51.2679 75.6988 50.8689 75.9015 50.3622C76.1042 49.8555 76.2055 49.2812 76.2055 48.6394C76.2055 48.1496 76.1464 47.7063 76.0282 47.3094C75.9099 46.9083 75.7263 46.5663 75.4772 46.2834C75.228 45.9962 74.9114 45.7767 74.5271 45.6247C74.1429 45.4727 73.6848 45.3967 73.1527 45.3967H71.5757C71.5757 45.7302 71.5757 46.0659 71.5757 46.4037C71.5757 46.7373 71.5757 47.1067 71.5757 47.5121V49.9188C71.5757 50.3157 71.5757 50.681 71.5757 51.0145C71.5757 51.3439 71.5757 51.6711 71.5757 51.9962ZM79.4274 53.2123C79.4274 52.714 79.4274 52.2348 79.4274 51.7746C79.4274 51.3143 79.4274 50.8034 79.4274 50.2418V47.2017C79.4274 46.6275 79.4274 46.106 79.4274 45.6373C79.4274 45.1686 79.4274 44.6831 79.4274 44.1806H80.9411C80.9411 44.6831 80.9411 45.1686 80.9411 45.6373C80.9411 46.106 80.9411 46.6275 80.9411 47.2017V50.2418C80.9411 50.8034 80.9411 51.3143 80.9411 51.7746C80.9411 52.2348 80.9411 52.714 80.9411 53.2123H79.4274ZM82.3785 53.2123C82.5474 52.7267 82.7247 52.2158 82.9105 51.6796C83.0963 51.1433 83.2757 50.6345 83.4488 50.1532L84.5255 47.0497C84.724 46.4924 84.9013 45.9899 85.0576 45.5423C85.2138 45.0905 85.3721 44.6366 85.5326 44.1806H87.4643C87.629 44.6493 87.7873 45.1074 87.9393 45.555C88.0956 46.0026 88.2708 46.5029 88.465 47.0561L89.5354 50.1658C89.7085 50.6641 89.8859 51.1771 90.0674 51.7049C90.2532 52.2285 90.4284 52.7309 90.5931 53.2123H89.0477C88.883 52.7014 88.7141 52.1778 88.541 51.6416C88.3679 51.1011 88.2032 50.5902 88.047 50.1088L86.5523 45.4853H86.4256L84.9119 50.0645C84.7472 50.5627 84.5762 51.0842 84.3989 51.6289C84.2215 52.1736 84.0484 52.7014 83.8795 53.2123H82.3785ZM84.2342 51.0842L84.3735 49.9442H88.7564L88.8704 51.0842H84.2342ZM91.9763 53.2123C91.9763 52.714 91.9763 52.2348 91.9763 51.7746C91.9763 51.3143 91.9763 50.8034 91.9763 50.2418V47.1954C91.9763 46.6296 91.9763 46.1102 91.9763 45.6373C91.9763 45.1644 91.9763 44.6789 91.9763 44.1806C92.331 44.1806 92.7933 44.1806 93.3634 44.1806C93.9334 44.1806 94.5878 44.1806 95.3268 44.1806C96.0319 44.1806 96.6167 44.2714 97.0812 44.453C97.5456 44.6345 97.894 44.9216 98.1262 45.3143C98.3584 45.707 98.4745 46.2221 98.4745 46.8597C98.4745 47.4255 98.3711 47.928 98.1642 48.3671C97.9573 48.8062 97.6153 49.1504 97.1382 49.3995C96.661 49.6486 96.0171 49.7732 95.2064 49.7732C94.9995 49.7732 94.7757 49.7732 94.5351 49.7732C94.2986 49.7732 94.0664 49.7732 93.8384 49.7732C93.6104 49.7732 93.414 49.7732 93.2493 49.7732V48.5634H94.8961C95.3732 48.5634 95.7638 48.5064 96.0678 48.3924C96.3718 48.2784 96.5956 48.0969 96.7391 47.8477C96.8869 47.5986 96.9608 47.2735 96.9608 46.8724C96.9608 46.543 96.908 46.2812 96.8025 46.087C96.6969 45.8886 96.5576 45.7408 96.3845 45.6437C96.2156 45.5423 96.0277 45.4748 95.8208 45.441C95.6181 45.4072 95.4197 45.3903 95.2254 45.3903H92.7237L93.4457 44.4086C93.4457 44.9069 93.4457 45.3924 93.4457 45.8653C93.4457 46.334 93.4457 46.8534 93.4457 47.4234V50.2418C93.4457 50.8034 93.4457 51.3143 93.4457 51.7746C93.4457 52.2348 93.4457 52.714 93.4457 53.2123H91.9763ZM100.029 53.2123C100.029 52.714 100.029 52.2348 100.029 51.7746C100.029 51.3143 100.029 50.8034 100.029 50.2418V47.1954C100.029 46.6296 100.029 46.1102 100.029 45.6373C100.029 45.1644 100.029 44.6789 100.029 44.1806H105.78V45.4347C105.371 45.4347 104.932 45.4347 104.463 45.4347C103.994 45.4347 103.441 45.4347 102.803 45.4347H100.656L101.486 44.4086C101.486 44.9069 101.486 45.3924 101.486 45.8653C101.486 46.334 101.486 46.8534 101.486 47.4234V50.0138C101.486 50.5712 101.486 51.0821 101.486 51.5466C101.486 52.0068 101.486 52.486 101.486 52.9843L100.745 51.9582H102.924C103.456 51.9582 103.96 51.9582 104.437 51.9582C104.915 51.9582 105.373 51.9582 105.812 51.9582V53.2123H100.029ZM101.157 49.2475V48.0378H102.873C103.447 48.0378 103.939 48.0378 104.349 48.0378C104.763 48.0378 105.162 48.0378 105.546 48.0378V49.2475C105.145 49.2475 104.737 49.2475 104.323 49.2475C103.914 49.2475 103.428 49.2475 102.867 49.2475H101.157ZM107.563 53.2123C107.563 52.714 107.563 52.2348 107.563 51.7746C107.563 51.3143 107.563 50.8034 107.563 50.2418V47.1954C107.563 46.6296 107.563 46.1102 107.563 45.6373C107.563 45.1644 107.563 44.6789 107.563 44.1806C107.816 44.1806 108.112 44.1806 108.45 44.1806C108.787 44.1806 109.15 44.1806 109.539 44.1806C109.932 44.1806 110.341 44.1806 110.768 44.1806C111.473 44.1806 112.064 44.2629 112.541 44.4276C113.018 44.5881 113.377 44.852 113.618 45.2193C113.858 45.5824 113.979 46.0722 113.979 46.6887C113.979 47.1912 113.879 47.6493 113.681 48.0631C113.487 48.4769 113.166 48.8104 112.718 49.0638C112.271 49.3129 111.669 49.4396 110.913 49.4438L111.439 48.8168L112.794 50.6092C113.005 50.8879 113.229 51.1834 113.466 51.4959C113.702 51.8083 113.932 52.1145 114.156 52.4143C114.384 52.714 114.585 52.98 114.758 53.2123H113.041C112.771 52.8407 112.509 52.4839 112.256 52.1419C112.007 51.7957 111.762 51.4579 111.521 51.1285L109.944 48.9625L110.844 49.7352H108.76V48.5254H110.4C110.86 48.5254 111.241 48.4727 111.54 48.3671C111.844 48.2573 112.07 48.08 112.218 47.8351C112.37 47.5902 112.446 47.2629 112.446 46.8534C112.446 46.5198 112.393 46.2559 112.288 46.0617C112.182 45.8675 112.043 45.7218 111.87 45.6247C111.701 45.5275 111.515 45.4642 111.312 45.4347C111.11 45.4051 110.911 45.3903 110.717 45.3903H107.987L109.02 44.4086C109.02 44.928 109.02 45.422 109.02 45.8907C109.02 46.3594 109.02 46.8703 109.02 47.4234V50.2418C109.02 50.8034 109.02 51.3143 109.02 51.7746C109.02 52.2348 109.02 52.714 109.02 53.2123H107.563ZM118.865 53.358C118.489 53.358 118.107 53.3242 117.718 53.2566C117.334 53.1933 116.975 53.1109 116.642 53.0096C116.312 52.9083 116.046 52.8069 115.844 52.7056L115.964 51.3185C116.255 51.4832 116.555 51.6247 116.863 51.7429C117.176 51.8569 117.49 51.9477 117.807 52.0152C118.128 52.0786 118.447 52.1102 118.764 52.1102C119.11 52.1102 119.418 52.0659 119.688 51.9772C119.958 51.8843 120.17 51.7429 120.322 51.5529C120.478 51.3587 120.556 51.1095 120.556 50.8055C120.556 50.5142 120.469 50.2735 120.296 50.0835C120.127 49.8935 119.88 49.7288 119.555 49.5895C119.23 49.4459 118.842 49.3066 118.39 49.1715C117.824 48.9983 117.341 48.8062 116.939 48.5951C116.538 48.3798 116.232 48.1116 116.021 47.7907C115.814 47.4698 115.711 47.0561 115.711 46.5494C115.711 46.0596 115.823 45.6226 116.046 45.2383C116.274 44.8541 116.612 44.5543 117.06 44.3389C117.512 44.1194 118.075 44.0096 118.751 44.0096C119.021 44.0096 119.291 44.0286 119.562 44.0666C119.836 44.1046 120.098 44.1553 120.347 44.2186C120.6 44.2777 120.83 44.3474 121.037 44.4276C121.244 44.5078 121.424 44.5902 121.576 44.6746L121.443 46.0553C121.185 45.8822 120.911 45.7387 120.619 45.6247C120.332 45.5064 120.047 45.4178 119.764 45.3587C119.486 45.2953 119.226 45.2636 118.985 45.2636C118.677 45.2636 118.394 45.308 118.137 45.3967C117.879 45.4853 117.672 45.6204 117.516 45.802C117.36 45.9793 117.281 46.2074 117.281 46.486C117.281 46.7394 117.349 46.9526 117.484 47.1257C117.619 47.2988 117.833 47.453 118.124 47.5881C118.415 47.7232 118.791 47.8625 119.251 48.0061C119.973 48.2341 120.543 48.4663 120.961 48.7028C121.379 48.935 121.675 49.2095 121.848 49.5261C122.025 49.8428 122.114 50.2397 122.114 50.7169C122.114 51.2278 122 51.6817 121.772 52.0786C121.548 52.4755 121.196 52.7879 120.714 53.0159C120.237 53.2439 119.621 53.358 118.865 53.358Z" fill="#58695F"/>
</svg>
