<svg width="380" height="400" viewBox="0 0 380 400" fill="none" xmlns="http://www.w3.org/2000/svg">
<g clip-path="url(#clip0_804_204)">
<path d="M258.785 292V287.711H246.171C241.462 287.711 239.107 285.357 239.107 280.648V130.29C239.107 125.413 241.377 122.974 245.918 122.974H258.785V118.686H194.202C177.888 118.686 165.19 120.704 156.108 124.74C146.858 128.777 140.383 134.243 136.682 141.138C132.814 147.866 130.88 155.518 130.88 164.095C130.88 171.327 132.73 178.139 136.43 184.53C140.13 190.753 146.017 195.966 154.09 200.171C161.994 204.208 172.422 206.478 185.372 206.983L137.944 287.711H118.518V292H163.172V287.711H143.242L190.67 207.235H191.679C200.424 207.235 208.413 206.814 215.645 205.973C222.709 205.133 229.016 204.123 234.566 202.946V287.459H205.05V292H258.785ZM191.679 202.946C177.888 202.946 166.956 201.18 158.883 197.648C150.642 193.948 144.671 189.155 140.971 183.269C137.271 177.214 135.421 170.823 135.421 164.095C135.421 156.359 137.103 149.463 140.467 143.409C143.83 137.186 149.801 132.224 158.378 128.524C166.788 124.824 178.729 122.974 194.202 122.974H234.566V198.657C229.184 199.667 222.961 200.676 215.897 201.685C208.666 202.526 200.593 202.946 191.679 202.946Z" fill="white"/>
<path d="M379.69 210.228C379.69 315.076 294.693 400.073 189.845 400.073C84.9965 400.073 0 315.076 0 210.228C0 105.379 84.9965 20.3828 189.845 20.3828C294.693 20.3828 379.69 105.379 379.69 210.228ZM4.3179 210.228C4.3179 312.692 87.3812 395.755 189.845 395.755C292.309 395.755 375.372 312.692 375.372 210.228C375.372 107.764 292.309 24.7007 189.845 24.7007C87.3812 24.7007 4.3179 107.764 4.3179 210.228Z" fill="white"/>
</g>
<defs>
<clipPath id="clip0_804_204">
<rect width="380" height="399.839" fill="white"/>
</clipPath>
</defs>
</svg>
