<svg width="450" height="450" viewBox="0 0 450 450" fill="none" xmlns="http://www.w3.org/2000/svg">
<rect width="450" height="450" rx="225" fill="black"/>
<g clip-path="url(#clip0_804_186)">
<path d="M268.317 283V280.327H260.453C257.518 280.327 256.05 278.859 256.05 275.923V182.194C256.05 179.154 257.465 177.633 260.296 177.633H268.317V174.96H228.057C217.887 174.96 209.972 176.218 204.31 178.734C198.544 181.251 194.508 184.658 192.201 188.956C189.79 193.15 188.584 197.92 188.584 203.267C188.584 207.776 189.737 212.022 192.044 216.006C194.35 219.885 198.02 223.135 203.052 225.756C207.98 228.272 214.48 229.688 222.553 230.002L192.987 280.327H180.878V283H208.714V280.327H196.29L225.855 230.159H226.484C231.936 230.159 236.916 229.897 241.424 229.373C245.828 228.849 249.759 228.22 253.219 227.486V280.169H234.819V283H268.317ZM226.484 227.486C217.887 227.486 211.073 226.385 206.04 224.183C200.903 221.877 197.181 218.889 194.874 215.219C192.568 211.445 191.415 207.461 191.415 203.267C191.415 198.445 192.463 194.146 194.56 190.372C196.657 186.493 200.379 183.4 205.726 181.093C210.968 178.787 218.412 177.633 228.057 177.633H253.219V224.813C249.864 225.442 245.985 226.071 241.582 226.7C237.074 227.224 232.041 227.486 226.484 227.486Z" fill="white"/>
<path d="M343.689 231.052C343.689 296.412 290.705 349.397 225.345 349.397C159.985 349.397 107 296.412 107 231.052C107 165.692 159.985 112.707 225.345 112.707C290.705 112.707 343.689 165.692 343.689 231.052ZM109.692 231.052C109.692 294.925 161.471 346.705 225.345 346.705C289.218 346.705 340.998 294.925 340.998 231.052C340.998 167.178 289.218 115.399 225.345 115.399C161.471 115.399 109.692 167.178 109.692 231.052Z" fill="white"/>
</g>
<defs>
<clipPath id="clip0_804_186">
<rect width="236.883" height="249.25" fill="white" transform="translate(107 100)"/>
</clipPath>
</defs>
</svg>
