<svg width="55" height="58" viewBox="0 0 55 58" fill="none" xmlns="http://www.w3.org/2000/svg">
<path d="M37.5377 16.5V18.0752H35.3111C35.0933 18.0753 35.019 18.1328 34.9918 18.1621C34.9582 18.1983 34.8971 18.2993 34.8971 18.5576V38.7363C34.8971 38.9751 34.9567 39.0625 34.9879 39.0938C35.019 39.1249 35.1064 39.1846 35.3453 39.1846H37.5377V40.7598H29.3268V39.1504H33.2877V28.916C32.6821 29.0273 32.0216 29.1259 31.3072 29.2109H31.3062C30.3554 29.3215 29.314 29.3772 28.1832 29.3818L22.4068 39.1846H24.7066V40.7598H17.7135V39.1846H20.5348L26.3434 29.2959C24.9266 29.172 23.7265 28.8742 22.7603 28.3809L22.7564 28.3799V28.3789C21.6117 27.7827 20.742 27.0259 20.1871 26.0928L20.1842 26.0869C19.6448 25.155 19.3727 24.1549 19.3727 23.0947C19.3727 21.8656 19.6502 20.7502 20.2174 19.7637C20.7813 18.7211 21.7481 17.9264 23.0553 17.3555L23.3062 17.25C24.5906 16.7399 26.2893 16.5 28.3707 16.5H37.5377ZM28.3707 18.0752C26.3223 18.0752 24.8002 18.3225 23.7643 18.7783L23.7613 18.7793C22.6803 19.2456 21.9823 19.8471 21.5992 20.5557L21.5963 20.5605C21.1908 21.2905 20.982 22.1313 20.982 23.0947C20.9821 23.8998 21.2022 24.6672 21.6529 25.4053C22.0836 26.0883 22.7949 26.6744 23.8355 27.1416C24.8298 27.5755 26.2181 27.8086 28.0318 27.8086C29.2127 27.8086 30.2766 27.7527 31.2242 27.6426C31.9878 27.5334 32.675 27.4201 33.2877 27.3115V18.0752H28.3707Z" fill="white" stroke="white"/>
<mask id="path-2-outside-1_1028_131" maskUnits="userSpaceOnUse" x="0.21347" y="2" width="55" height="55" fill="black">
<rect fill="white" x="0.21347" y="2" width="55" height="55"/>
<path d="M53.1705 29.4785C53.1705 43.5499 41.7634 54.9571 27.692 54.9571C13.6206 54.9571 2.21347 43.5499 2.21347 29.4785C2.21347 15.4071 13.6206 4 27.692 4C41.7634 4 53.1705 15.4071 53.1705 29.4785ZM3.19349 29.4785C3.19349 43.0087 14.1618 53.9771 27.692 53.9771C41.2222 53.9771 52.1905 43.0087 52.1905 29.4785C52.1905 15.9484 41.2222 4.98002 27.692 4.98002C14.1618 4.98002 3.19349 15.9484 3.19349 29.4785Z"/>
</mask>
<path d="M53.1705 29.4785C53.1705 43.5499 41.7634 54.9571 27.692 54.9571C13.6206 54.9571 2.21347 43.5499 2.21347 29.4785C2.21347 15.4071 13.6206 4 27.692 4C41.7634 4 53.1705 15.4071 53.1705 29.4785ZM3.19349 29.4785C3.19349 43.0087 14.1618 53.9771 27.692 53.9771C41.2222 53.9771 52.1905 43.0087 52.1905 29.4785C52.1905 15.9484 41.2222 4.98002 27.692 4.98002C14.1618 4.98002 3.19349 15.9484 3.19349 29.4785Z" fill="white"/>
<path d="M53.1705 29.4785C53.1705 43.5499 41.7634 54.9571 27.692 54.9571C13.6206 54.9571 2.21347 43.5499 2.21347 29.4785C2.21347 15.4071 13.6206 4 27.692 4C41.7634 4 53.1705 15.4071 53.1705 29.4785ZM3.19349 29.4785C3.19349 43.0087 14.1618 53.9771 27.692 53.9771C41.2222 53.9771 52.1905 43.0087 52.1905 29.4785C52.1905 15.9484 41.2222 4.98002 27.692 4.98002C14.1618 4.98002 3.19349 15.9484 3.19349 29.4785Z" stroke="white" stroke-width="3" mask="url(#path-2-outside-1_1028_131)"/>
</svg>
